<svg width="173" height="75" viewBox="0 0 173 75" fill="none" xmlns="http://www.w3.org/2000/svg">
<path d="M30.72 54.632C30.72 60.1467 29.752 64.2827 27.816 67.04C25.9387 69.7973 22.9173 71.176 18.752 71.176C16.5227 71.176 14.6453 70.824 13.12 70.12C11.6533 69.416 10.4507 68.2427 9.512 66.6C8.57333 64.8987 7.86933 62.6693 7.4 59.912C6.93067 57.1547 6.608 53.752 6.432 49.704L13.648 49.44V53.488C13.648 60.1173 15.4373 63.432 19.016 63.432C22.008 63.432 23.504 61.2907 23.504 57.008L21.832 3.592L28.96 4.20799C29.2533 9.72266 29.5173 16.4987 29.752 24.536C29.9867 32.5733 30.28 42.048 30.632 52.96L30.72 54.632ZM19.368 43.28L13.472 43.456L13.56 46.184L6.344 46.536L6.256 43.632L0.36 43.896L9.512 34.04L19.368 43.28ZM57.6219 65.984H37.7339V0.775997H56.1259V9.048H45.0379V27.792H54.5419V36.152H45.2139V57.272H57.6219V65.984ZM68.7422 7.46399L68.2142 32.72L77.6302 32.808L77.9822 7.288L85.0222 7.376L83.7902 70.384L76.8382 70.296L77.3662 40.992L68.0382 40.904L67.5102 70.824L60.3822 70.472L61.7022 7.288L68.7422 7.46399ZM115.989 51.64C115.871 57.3893 114.757 61.7013 112.645 64.576C110.533 67.392 107.541 68.8 103.669 68.8C99.5032 68.8 96.4819 67.4213 94.6046 64.664C92.7272 61.848 91.7886 57.5947 91.7886 51.904L92.7566 16.616C92.8739 11.6293 93.9886 7.75733 96.1006 4.99999C98.2712 2.24266 101.263 0.863996 105.077 0.863996C106.895 0.863996 108.509 1.24533 109.917 2.008C111.383 2.712 112.615 3.73867 113.613 5.088C114.669 6.37866 115.461 7.93333 115.989 9.752C116.517 11.512 116.781 13.4773 116.781 15.648V17.584L115.989 51.64ZM109.565 16C109.565 13.8293 109.125 12.0107 108.245 10.544C107.365 9.01866 106.25 8.25599 104.901 8.25599C103.551 8.25599 102.407 8.96 101.469 10.368C100.53 11.776 100.031 13.7413 99.9726 16.264L99.0046 54.368C99.0046 56.1867 99.4152 57.8293 100.237 59.296C101.117 60.7627 102.231 61.496 103.581 61.496C104.989 61.496 106.162 60.7627 107.101 59.296C108.039 57.8293 108.509 55.9227 108.509 53.576L109.565 16ZM145.029 20.224L144.853 54.368C144.795 65.7493 140.893 71.5867 133.149 71.88C124.936 71.88 120.8 66.3067 120.741 55.16L121.005 19.872C121.064 14.8853 122.091 11.0133 124.085 8.25599C126.139 5.49866 129.072 4.032 132.885 3.856C136.581 3.856 139.485 5.20533 141.597 7.904C143.768 10.544 144.912 14.416 145.029 19.52V20.224ZM137.725 18.816C137.725 16.5867 137.256 14.768 136.317 13.36C135.379 11.952 134.235 11.248 132.885 11.248C131.419 11.248 130.275 12.04 129.453 13.624C128.632 15.208 128.221 17.0853 128.221 19.256L127.957 56.832C127.957 59.0613 128.427 60.9093 129.365 62.376C130.363 63.784 131.507 64.488 132.797 64.488C134.323 64.488 135.437 63.7253 136.141 62.2C136.904 60.616 137.403 58.7093 137.637 56.48L137.725 18.816ZM172.046 16.352L162.894 15.912L160.782 59.12L153.654 58.768L155.766 15.56L147.318 15.12L147.758 6.936L172.31 8.08L172.046 16.352ZM166.414 65.984L156.382 74.872L147.406 65.016L153.214 65.28L153.39 62.464L160.606 62.904L160.43 65.632L166.414 65.984Z" fill="#F4F4F6"/>
</svg>
